PathFileType	4	(X/Y/Z)	C:/Users/opensim2020/Desktop/walking_exp_matlab/subject06_walking19_straight_04.trc																																																																																																																																																	
DataRate	CameraRate	NumFrames	NumMarkers	Units	OrigDataRate	OrigDataStartFrame	OrigNumFrames																																																																																																																																													
100	100	5	49	mm	100	4671	340																																																																																																																																													
Frame#	Time	LFHD			RFHD			LBHD			RBHD			C7			T10			CLAV			STRN			RBAK			LSHO			LUPA			LELB			LFRM			LWRA			LWRB			LFIN			RSHO			RUPA			RELB			RFRM			RWRA			RWRB			RFIN			LASI			RASI			LPSI			RPSI			LTHI			LKNE			LTIB			LANK			LHEE			LTOE			RTHI			RKNE			RTIB			RANK			RHEE			RTOE			*39			*40			*41			*42			*43			*44			*45			*46			*47			*48		
		X1	Y1	Z1	X2	Y2	Z2	X3	Y3	Z3	X4	Y4	Z4	X5	Y5	Z5	X6	Y6	Z6	X7	Y7	Z7	X8	Y8	Z8	X9	Y9	Z9	X10	Y10	Z10	X11	Y11	Z11	X12	Y12	Z12	X13	Y13	Z13	X14	Y14	Z14	X15	Y15	Z15	X16	Y16	Z16	X17	Y17	Z17	X18	Y18	Z18	X19	Y19	Z19	X20	Y20	Z20	X21	Y21	Z21	X22	Y22	Z22	X23	Y23	Z23	X24	Y24	Z24	X25	Y25	Z25	X26	Y26	Z26	X27	Y27	Z27	X28	Y28	Z28	X29	Y29	Z29	X30	Y30	Z30	X31	Y31	Z31	X32	Y32	Z32	X33	Y33	Z33	X34	Y34	Z34	X35	Y35	Z35	X36	Y36	Z36	X37	Y37	Z37	X38	Y38	Z38	X39	Y39	Z39	X40	Y40	Z40	X41	Y41	Z41	X42	Y42	Z42	X43	Y43	Z43	X44	Y44	Z44	X45	Y45	Z45	X46	Y46	Z46	X47	Y47	Z47	X48	Y48	Z48	X49	Y49	Z49
																																																																																																																																																				
128	1.27	-456.56522	1654.66394	922.36182	-456.53613	1646.29443	1054.52161	-586.83508	1593.25574	923.07007	-585.10919	1589.91919	1052.57959	-581.06024	1441.12952	978.35834	-614.70953	1112.76123	989.8078	-470.7738	1364.67419	984.54419	-432.94171	1187.72595	978.99255	-655.69537	1271.36145	1056.16077	-514.33368	1395.83521	820.81641	-481.83438	1195.8949	748.97491	-457.80383	1084.76648	737.93939	-381.55585	953.72241	731.12787	-292.43747	871.29132	790.44293	-340.39413	842.27026	747.07898	-272.80563	782.56421	759.22131	-521.50763	1395.42175	1144.40015	-572.34534	1199.52527	1229.80957	-571.83887	1077.5929	1242.49353	-560.74103	958.13867	1261.82312	-499.52924	817.97491	1236.63928	-557.78973	820.62219	1272.71704	-522.46362	743.74945	1277.81506	-443.64972	946.07184	880.11963	-435.47656	959.46075	1102.4751	-599.56299	980.15662	913.50299	-588.73315	984.30139	1082.11633	-551.23145	637.56195	839.71332	-582.64587	476.15485	864.51215	-680.06824	236.83095	880.36255	-730.21704	73.98936	931.44421	-773.59698	66.73277	976.30554	-590.4729	33.58274	935.52039	-436.44986	634.07959	1167.74829	-401.02451	517.05859	1136.0802	-359.67355	257.62793	1150.3114	-304.94412	77.71949	1113.07422	-333.72888	42.41554	1068.22864	-147.27026	79.01437	1106.84241	-558.78278	1688.62781	980.53802	NaN	NaN	NaN	NaN	NaN	NaN	NaN	NaN	NaN	NaN	NaN	NaN	NaN	NaN	NaN	NaN	NaN	NaN	NaN	NaN	NaN	NaN	NaN	NaN	NaN	NaN	NaN
129	1.28	-450.75903	1654.09558	923.953	-450.65811	1645.65186	1056.06616	-580.99976	1592.65747	924.65448	-578.94513	1589.21985	1053.83923	-575.08142	1440.38989	979.87665	-608.22272	1111.99097	991.30096	-464.74463	1364.03638	985.84363	-426.61493	1187.16772	979.99432	-649.36121	1270.40662	1057.59375	-508.72214	1395.36816	822.15613	-476.04425	1195.37	750.3421	-451.96768	1084.33191	739.23212	-375.401	953.2052	732.77399	-285.74792	871.47852	792.25635	-333.61978	842.08185	749.23755	-266.09	782.61237	761.38037	-515.2038	1394.59924	1145.79932	-566.20898	1198.64795	1231.07336	-565.77435	1076.79272	1243.91089	-555.03149	957.28607	1263.29309	-494.41702	816.88593	1238.18054	-552.49951	819.64404	1274.16028	-517.77893	742.69128	1279.28418	-437.80624	945.30341	880.97705	-428.41818	958.5943	1103.27917	-593.22925	979.47107	914.90967	-581.65491	983.67999	1083.49341	-545.95471	637.15558	840.72461	-577.85535	475.80927	865.22363	-677.57465	237.39558	880.73889	-729.71118	75.02165	931.39856	-773.56287	68.39423	976.3064	-590.35999	33.5798	935.6106	-430.81396	632.84686	1168.41663	-396.38913	515.45001	1136.6062	-357.40009	255.60907	1150.67822	-304.13504	75.19841	1113.13806	-333.25613	40.25513	1068.45459	-146.49858	75.42529	1107.25232	-552.89484	1688.02271	982.13098	NaN	NaN	NaN	NaN	NaN	NaN	NaN	NaN	NaN	NaN	NaN	NaN	NaN	NaN	NaN	NaN	NaN	NaN	NaN	NaN	NaN	NaN	NaN	NaN	NaN	NaN	NaN
130	1.29	-444.89185	1653.57263	925.55145	-444.67725	1644.99731	1057.68042	-575.07904	1592.09216	926.23462	-572.92847	1588.56287	1055.4801	-569.09491	1439.65857	981.44727	-601.58624	1111.23474	992.82471	-458.46478	1363.56775	987.15417	-420.08228	1186.65967	981.07874	-642.92865	1269.3822	1059.09485	-502.82761	1394.81958	823.58881	-470.18887	1194.90344	751.72839	-446.20718	1083.70215	740.87189	-369.2803	952.88647	734.52905	-279.44916	871.53625	794.21393	-327.05859	841.87408	751.08533	-259.59061	782.61926	763.61816	-508.88574	1393.81824	1147.28699	-559.92072	1197.93958	1232.55066	-559.53931	1076.01477	1245.39893	-549.2309	956.4906	1264.81543	-488.98083	815.80255	1239.79883	-547.19916	818.85193	1275.77698	-512.66748	741.78094	1280.96692	-431.58875	944.59937	881.85675	-421.28088	957.61621	1104.1875	-586.79443	978.79822	916.46954	-574.54755	983.13696	1085.00867	-540.60333	636.72998	841.70276	-572.94562	475.41046	865.98163	-675.01868	237.95795	881.04718	-729.08209	76.0955	931.20673	-773.21967	69.91473	976.02197	-590.09613	33.41491	935.95447	-425.13037	631.52051	1169.16736	-391.88409	513.77325	1137.19568	-355.33176	253.52563	1151.2738	-304.06613	72.59496	1113.6969	-333.62094	37.70247	1068.84863	-146.47618	71.41979	1107.36011	-546.97333	1687.43274	983.82935	NaN	NaN	NaN	NaN	NaN	NaN	NaN	NaN	NaN	NaN	NaN	NaN	NaN	NaN	NaN	NaN	NaN	NaN	NaN	NaN	NaN	NaN	NaN	NaN	NaN	NaN	NaN
131	1.3	-439.0032	1652.96753	927.20068	-438.63834	1644.349	1059.28906	-569.18994	1591.57776	928.01538	-566.95294	1587.9093	1057.17456	-563.09558	1438.89099	983.15845	-594.77606	1110.47644	994.44226	-452.36926	1362.96704	988.59741	-413.52191	1186.17053	982.19312	-636.44141	1268.39099	1060.73254	-497.25269	1394.41406	825.10541	-464.3873	1194.42847	753.19	-440.40842	1083.19653	742.44452	-363.13065	952.56525	736.23743	-273.39581	871.48096	796.25427	-320.72711	841.74506	753.07355	-252.97388	782.64301	765.69714	-502.48495	1393.04492	1148.81213	-553.59747	1197.20349	1234.01807	-553.18488	1075.27405	1246.89819	-543.23816	955.729	1266.38281	-483.39346	814.69006	1241.42517	-541.78351	818.13403	1277.45654	-507.39926	740.89642	1282.61938	-424.75562	944.03784	882.78345	-414.02432	956.65723	1104.98755	-580.22369	978.22009	918.01929	-567.23914	982.55072	1086.58716	-534.90948	636.25391	842.55151	-567.82892	475.04156	866.69916	-672.29468	238.64333	881.21869	-728.47327	77.32743	930.92157	-772.46252	71.24432	975.43781	-590.04803	33.55954	935.80109	-419.43936	630.14337	1169.96313	-387.42532	512.07507	1137.94214	-353.37775	251.35388	1152.00586	-304.61478	69.45706	1113.849	-334.55112	34.58968	1069.17529	-146.9917	66.93416	1107.17761	-541.19556	1686.95654	985.9126	NaN	NaN	NaN	NaN	NaN	NaN	NaN	NaN	NaN	NaN	NaN	NaN	NaN	NaN	NaN	NaN	NaN	NaN	NaN	NaN	NaN	NaN	NaN	NaN	NaN	NaN	NaN
132	1.31	-433.05435	1652.4762	928.91913	-432.56644	1643.71497	1060.9989	-563.25562	1591.10315	929.77795	-560.92175	1587.31812	1058.98352	-557.0769	1438.14075	984.90625	-587.78027	1109.70264	996.13281	-446.12991	1362.49683	990.05078	-406.13812	1185.8313	983.33038	-629.83374	1267.36792	1062.40759	-491.31424	1393.87769	826.74176	-458.56668	1193.99963	754.70886	-434.48935	1082.77344	743.9848	-356.98172	952.27216	737.90179	-266.77008	871.56616	797.96289	-314.3028	841.5849	754.58838	-246.43239	782.62036	767.73395	-496.05396	1392.37012	1150.44739	-547.06659	1196.53552	1235.68823	-546.69415	1074.56909	1248.44702	-536.99902	954.99292	1267.96741	-477.67758	813.8479	1243.10864	-536.05188	817.41077	1279.12854	-502.0004	740.03992	1284.27112	-418.17944	943.35175	883.73816	-406.60229	955.63745	1105.95203	-573.55243	977.68512	919.6192	-559.91608	982.05194	1088.25525	-529.04163	635.85034	843.26477	-562.50165	474.71393	867.47107	-669.48468	239.37634	881.354	-727.80853	78.6356	930.51074	-772.31415	73.29001	974.96759	-589.9024	33.53036	935.88245	-413.74957	628.7113	1170.7688	-382.96768	510.3353	1138.60095	-351.7796	249.16884	1152.4491	-304.77637	66.80886	1113.44958	-334.49344	33.11034	1068.70422	-146.89931	61.66722	1107.2323	-535.1286	1686.32532	987.5918	NaN	NaN	NaN	NaN	NaN	NaN	NaN	NaN	NaN	NaN	NaN	NaN	NaN	NaN	NaN	NaN	NaN	NaN	NaN	NaN	NaN	NaN	NaN	NaN	NaN	NaN	NaN
